<svg version="1.0" xmlns="http://www.w3.org/2000/svg" width="1536.000000ptpx" height="1536.000000ptpx" viewBox="0 0 1536.000000 1536.000000" preserveAspectRatio="xMidYMid meet" transform="rotate(0) scale(1, 1)">

<g transform="translate(0.000000,1536.000000) scale(0.100000,-0.100000)" fill="#e8e8e8" stroke="none">
<path d="M10065 14953 c-374 -19 -948 -113 -1295 -209 -1889 -528 -3405 -1883&#xA;-4131 -3695 -225 -561 -364 -1157 -419 -1789 -8 -86 -11 -946 -10 -2782 1&#xA;-2572 1 -2660 20 -2732 35 -138 129 -291 234 -380 79 -68 161 -113 266 -148&#xA;87 -28 107 -31 225 -31 119 0 138 3 225 31 130 43 211 92 305 187 94 95 152&#xA;191 192 320 l28 90 2 2555 c1 1405 4 2614 7 2685 14 334 96 777 212 1138 128&#xA;398 330 815 567 1172 692 1037 1795 1775 2996 2005 304 58 465 75 826 89 208&#xA;8 238 12 310 36 210 69 357 196 451 386 59 120 77 212 71 359 -3 69 -12 146&#xA;-20 171 -85 261 -259 438 -512 519 -62 20 -94 23 -275 25 -113 1 -236 0 -275&#xA;-2z"/>
<path d="M10295 12169 c-293 -39 -541 -263 -622 -562 -16 -57 -18 -260 -23&#xA;-2722 -5 -1924 -10 -2685 -18 -2750 -57 -444 -118 -717 -237 -1063 -234 -680&#xA;-608 -1276 -1130 -1797 -550 -551 -1202 -942 -1953 -1171 -400 -123 -757 -180&#xA;-1273 -203 -198 -10 -225 -13 -311 -40 -205 -66 -352 -196 -449 -395 -56 -114&#xA;-72 -202 -67 -349 4 -98 10 -138 32 -202 40 -117 98 -209 190 -300 90 -89 186&#xA;-146 316 -187 70 -22 90 -23 320 -22 603 1 1221 107 1840 314 318 106 510 185&#xA;781 321 323 161 547 293 789 462 333 234 528 396 829 691 487 479 871 1007&#xA;1181 1621 350 694 537 1334 637 2175 16 133 18 366 21 2835 3 2993 8 2756 -65&#xA;2915 -106 233 -324 394 -577 429 -86 12 -123 12 -211 0z"/>
<path d="M7677 9373 c-26 -350 -195 -759 -432 -1043 -132 -158 -323 -325 -483&#xA;-423 -98 -59 -293 -151 -398 -186 -118 -40 -288 -78 -386 -87 -77 -7 -109 -24&#xA;-45 -24 59 0 218 -31 339 -66 582 -169 1053 -599 1277 -1166 54 -139 102 -333&#xA;117 -478 l8 -75 12 90 c31 238 82 404 194 630 87 174 163 288 292 432 234 263&#xA;559 468 899 567 101 29 297 66 351 66 72 0 38 16 -59 28 -302 37 -606 160&#xA;-884 358 -116 82 -321 288 -418 419 -195 264 -322 595 -365 946 l-12 104 -7&#xA;-92z"/>
</g>
</svg>